<svg version="1.1" id="Layer_1" xmlns="http://www.w3.org/2000/svg" xmlns:xlink="http://www.w3.org/1999/xlink" x="0px" y="0px"
	 width="100%" viewBox="0 0 94 94" enable-background="new 0 0 94 94" xml:space="preserve">
<path fill="#FCFBFB" opacity="1.000000" stroke="none" 
	d="
M61.000000,95.000000 
	C40.666672,95.000000 20.833345,95.000000 1.000013,95.000000 
	C1.000009,63.666683 1.000009,32.333363 1.000004,1.000034 
	C32.333309,1.000023 63.666615,1.000023 94.999939,1.000011 
	C94.999962,32.333302 94.999962,63.666599 94.999985,94.999954 
	C83.833336,95.000000 72.666664,95.000000 61.000000,95.000000 
M69.258591,39.021111 
	C67.774651,39.882137 66.290718,40.743164 64.211487,41.953049 
	C61.776855,44.935452 59.342228,47.917854 56.304092,51.171593 
	C54.838043,53.038811 53.371994,54.906029 51.550819,56.829865 
	C51.335087,56.717384 51.106117,56.649662 50.945648,55.862228 
	C50.945648,50.636719 50.945648,45.411209 50.945648,39.605892 
	C49.354198,40.709332 48.325684,41.422459 46.618790,41.691338 
	C45.747032,40.646973 44.875275,39.602608 44.185238,38.203903 
	C44.185238,38.203903 44.548874,38.041599 45.166649,38.471264 
	C45.785606,37.397747 46.404564,36.324226 47.709469,34.989815 
	C48.330544,34.886314 48.951614,34.782814 49.783554,35.070995 
	C49.972416,35.077000 50.161282,35.083004 50.350143,35.089005 
	C50.148746,34.899429 49.947346,34.709854 49.332893,33.885502 
	C51.263615,32.111652 53.194332,30.337801 54.534077,29.106907 
	C53.977219,27.107042 53.296799,25.896063 53.371479,24.733593 
	C53.894993,16.584616 47.613121,9.572060 36.915722,9.064581 
	C29.950508,8.734154 22.952751,9.089729 15.410965,9.071831 
	C15.284734,9.378055 15.158502,9.684278 14.827186,10.909357 
	C14.899317,24.276289 14.971448,37.643219 14.876755,51.740654 
	C14.988344,52.471207 15.099935,53.201763 15.552334,54.685135 
	C19.354467,54.747810 23.156601,54.810490 27.057327,55.553226 
	C27.736248,56.442421 28.415169,57.331615 28.761700,58.795105 
	C25.913118,61.227543 23.064539,63.659977 19.622654,65.861931 
	C14.521588,67.070389 10.228516,73.039703 12.305106,76.005844 
	C13.189744,75.164009 14.057323,74.295113 14.971033,73.477791 
	C16.972675,71.687294 18.997705,69.922943 21.614525,67.810600 
	C24.769062,64.947914 27.923599,62.085232 31.817261,59.237190 
	C33.855995,58.166168 35.894733,57.095146 37.996197,56.956841 
	C37.996197,66.531387 37.996197,76.105934 37.996197,85.980125 
	C41.249477,85.980125 43.898911,85.796562 46.512386,86.024750 
	C50.099926,86.337990 51.195408,84.822090 51.011543,81.386154 
	C50.844475,78.264153 51.255722,75.111198 51.701332,71.840935 
	C51.869278,71.702728 51.990837,71.531570 52.039288,71.106224 
	C52.039288,71.106224 51.960518,70.897758 52.462261,71.054016 
	C52.636284,71.034019 52.810310,71.014015 53.702572,71.076317 
	C54.577667,70.669418 55.452759,70.262520 56.930550,70.309944 
	C58.591213,72.880112 60.251881,75.450272 61.290276,78.061928 
	C60.760433,78.689316 60.230587,79.316711 59.700748,79.944107 
	C60.833122,79.948410 61.965492,79.952721 63.678055,80.353065 
	C67.973381,88.658821 75.240967,83.653183 82.329170,85.358391 
	C76.699051,77.070068 72.084251,69.890045 67.045685,63.020847 
	C64.500298,59.550671 63.643383,56.775570 68.122871,53.611973 
	C68.500122,53.106754 68.877373,52.601536 69.862656,51.834461 
	C73.203804,48.100655 76.544960,44.366848 79.886108,40.633038 
	C79.608810,40.149811 79.331512,39.666580 79.054214,39.183350 
	C77.033676,39.183350 75.013145,39.183350 72.335526,39.040581 
	C71.892998,39.093670 71.450478,39.146763 70.503586,39.044781 
	C70.333389,39.089157 70.163193,39.133530 69.258591,39.021111 
M57.416348,79.482231 
	C57.416348,79.482231 57.522640,79.419342 57.416348,79.482231 
z"/>
<path fill="#261D1B" opacity="1.000000" stroke="none" 
	d="
M15.043579,51.010151 
	C14.971448,37.643219 14.899317,24.276289 15.137800,10.372309 
	C15.716037,9.673032 15.889756,9.440606 15.969574,9.137981 
	C22.952751,9.089729 29.950508,8.734154 36.915722,9.064581 
	C47.613121,9.572060 53.894993,16.584616 53.371479,24.733593 
	C53.296799,25.896063 53.977219,27.107042 54.534077,29.106907 
	C53.194332,30.337801 51.263615,32.111652 49.517647,34.266117 
	C49.702400,34.646732 49.572689,34.679314 49.572689,34.679314 
	C48.951614,34.782814 48.330544,34.886314 47.065861,35.071518 
	C45.797791,36.116009 45.173332,37.078804 44.548874,38.041599 
	C44.548874,38.041599 44.185238,38.203903 43.794067,38.524788 
	C37.839672,40.245979 32.276455,41.646290 26.958735,42.984802 
	C26.958735,46.831333 26.958735,50.852249 26.958735,54.873169 
	C23.156601,54.810490 19.354467,54.747810 15.595387,54.105377 
	C15.440153,52.687134 15.241866,51.848640 15.043579,51.010151 
M40.667213,27.048750 
	C41.552662,20.386341 36.875370,18.302532 27.616240,19.985365 
	C27.616240,23.850071 27.616240,27.761297 27.616240,31.551044 
	C32.825321,31.867538 38.295574,35.034134 40.667213,27.048750 
z"/>
<path fill="#251D1C" opacity="1.000000" stroke="none" 
	d="
M72.992607,39.183350 
	C75.013145,39.183350 77.033676,39.183350 79.054214,39.183350 
	C79.331512,39.666580 79.608810,40.149811 79.886108,40.633038 
	C76.544960,44.366848 73.203804,48.100655 69.224777,51.943466 
	C67.876373,52.291668 67.165863,52.530865 66.455345,52.770061 
	C66.838150,53.175846 67.220955,53.581627 67.603760,53.987411 
	C63.643383,56.775570 64.500298,59.550671 67.045685,63.020847 
	C72.084251,69.890045 76.699051,77.070068 82.329170,85.358391 
	C75.240967,83.653183 67.973381,88.658821 63.359306,79.857941 
	C62.664555,78.915359 62.288551,78.467896 61.912548,78.020439 
	C60.251881,75.450272 58.591213,72.880112 56.535530,69.776047 
	C55.088451,69.826096 54.036392,70.410049 52.984333,70.994011 
	C52.810310,71.014015 52.636284,71.034019 52.221931,70.583130 
	C51.360073,66.069893 48.741203,62.023121 52.348091,57.961067 
	C54.129768,56.956940 55.571743,55.981102 57.369770,55.007416 
	C59.634541,54.380676 62.698772,59.119392 63.727806,53.798683 
	C61.433250,52.883453 59.277851,52.023731 57.063797,51.102097 
	C57.005142,51.040188 56.907600,50.900261 56.907600,50.900261 
	C59.342228,47.917854 61.776855,44.935452 64.569435,42.132973 
	C64.953705,42.551071 64.980019,42.789253 65.074692,43.381645 
	C67.428886,44.156914 69.714722,44.577969 72.305038,44.959938 
	C72.737228,43.008350 72.864914,41.095852 72.992607,39.183350 
M57.502018,61.178860 
	C57.133785,61.863087 56.765556,62.547314 56.397331,63.231541 
	C56.960464,63.381321 57.523602,63.531101 58.086735,63.680882 
	C58.116081,62.899479 58.145428,62.118080 57.502018,61.178860 
M61.438354,48.706741 
	C61.707851,48.989208 61.977345,49.271679 62.246841,49.554153 
	C62.363766,49.442482 62.480690,49.330811 62.597614,49.219135 
	C62.327785,48.936649 62.057957,48.654160 61.438354,48.706741 
z"/>
<path fill="#241B19" opacity="1.000000" stroke="none" 
	d="
M52.008385,57.989353 
	C48.741203,62.023121 51.360073,66.069893 51.971062,70.505005 
	C51.960518,70.897758 52.039288,71.106224 51.812187,71.144028 
	C51.527401,71.445190 51.469715,71.708542 51.412025,71.971893 
	C51.255722,75.111198 50.844475,78.264153 51.011543,81.386154 
	C51.195408,84.822090 50.099926,86.337990 46.512386,86.024750 
	C43.898911,85.796562 41.249477,85.980125 37.996197,85.980125 
	C37.996197,76.105934 37.996197,66.531387 38.305336,56.508369 
	C39.413860,55.497272 40.818680,55.020996 40.913261,54.357845 
	C41.479614,50.387135 43.813503,50.735207 46.758091,51.567905 
	C46.606522,53.302814 46.471745,54.845535 46.291798,56.905262 
	C48.036606,56.798954 49.450256,56.712826 50.863911,56.626698 
	C51.106117,56.649662 51.335087,56.717384 51.758377,57.105217 
	C51.980083,57.583496 51.994232,57.786423 52.008385,57.989353 
z"/>
<path fill="#EEECEA" opacity="1.000000" stroke="none" 
	d="
M27.008030,55.213196 
	C26.958735,50.852249 26.958735,46.831333 26.958735,42.984802 
	C32.276455,41.646290 37.839672,40.245979 43.703209,38.701958 
	C44.875275,39.602608 45.747032,40.646973 46.788437,42.212570 
	C41.649323,47.574169 36.340565,52.414528 30.789839,57.385250 
	C30.063276,57.750679 29.578682,57.985744 29.094088,58.220810 
	C28.415169,57.331615 27.736248,56.442421 27.008030,55.213196 
z"/>
<path fill="#1F1A19" opacity="1.000000" stroke="none" 
	d="
M31.031807,57.254887 
	C36.340565,52.414528 41.649323,47.574169 47.127625,42.434696 
	C48.325684,41.422459 49.354198,40.709332 50.945648,39.605892 
	C50.945648,45.411209 50.945648,50.636719 50.904778,56.244461 
	C49.450256,56.712826 48.036606,56.798954 46.291798,56.905262 
	C46.471745,54.845535 46.606522,53.302814 46.758091,51.567905 
	C43.813503,50.735207 41.479614,50.387135 40.913261,54.357845 
	C40.818680,55.020996 39.413860,55.497272 38.273972,56.042011 
	C35.894733,57.095146 33.855995,58.166168 31.443928,58.901806 
	C31.057665,58.129242 31.044735,57.692066 31.031807,57.254887 
z"/>
<path fill="#EAEAE9" opacity="1.000000" stroke="none" 
	d="
M21.013186,68.147919 
	C18.997705,69.922943 16.972675,71.687294 14.971033,73.477791 
	C14.057323,74.295113 13.189744,75.164009 12.305106,76.005844 
	C10.228516,73.039703 14.521588,67.070389 19.886385,66.278046 
	C20.437805,67.178749 20.725496,67.663330 21.013186,68.147919 
z"/>
<path fill="#302D2D" opacity="1.000000" stroke="none" 
	d="
M21.313854,67.979263 
	C20.725496,67.663330 20.437805,67.178749 20.183037,66.393288 
	C23.064539,63.659977 25.913118,61.227543 28.927895,58.507957 
	C29.578682,57.985744 30.063276,57.750679 30.789837,57.385250 
	C31.044735,57.692066 31.057665,58.129242 31.074366,58.894485 
	C27.923599,62.085232 24.769062,64.947914 21.313854,67.979263 
z"/>
<path fill="#1D1613" opacity="1.000000" stroke="none" 
	d="
M72.664062,39.111965 
	C72.864914,41.095852 72.737228,43.008350 72.121567,44.629791 
	C69.424507,43.901630 67.215416,43.464531 65.006325,43.027431 
	C64.980019,42.789253 64.953705,42.551071 64.867081,41.958542 
	C66.290718,40.743164 67.774651,39.882137 69.644478,39.331963 
	C70.183937,39.885723 70.337517,40.128628 70.491096,40.371532 
	C70.663383,39.980976 70.835670,39.590416 71.007950,39.199856 
	C71.450478,39.146763 71.892998,39.093670 72.664062,39.111965 
z"/>
<path fill="#1F1A19" opacity="1.000000" stroke="none" 
	d="
M52.348091,57.961067 
	C51.994232,57.786423 51.980083,57.583496 51.935944,57.076904 
	C53.371994,54.906029 54.838043,53.038811 56.605846,51.035927 
	C56.907600,50.900261 57.005142,51.040188 57.021915,51.481323 
	C57.030365,52.950058 57.022041,53.977657 57.013718,55.005260 
	C55.571743,55.981102 54.129768,56.956940 52.348091,57.961067 
z"/>
<path fill="#F3F2F0" opacity="1.000000" stroke="none" 
	d="
M61.601410,78.041183 
	C62.288551,78.467896 62.664555,78.915359 63.069214,79.659927 
	C61.965492,79.952721 60.833122,79.948410 59.700745,79.944107 
	C60.230587,79.316711 60.760433,78.689316 61.601410,78.041183 
z"/>
<path fill="#EEECEA" opacity="1.000000" stroke="none" 
	d="
M44.857761,38.256432 
	C45.173332,37.078804 45.797791,36.116009 46.722885,35.201965 
	C46.404564,36.324226 45.785606,37.397747 44.857761,38.256432 
z"/>
<path fill="#F3F2F0" opacity="1.000000" stroke="none" 
	d="
M53.343452,71.035164 
	C54.036392,70.410049 55.088451,69.826096 56.234184,69.548882 
	C55.452759,70.262520 54.577667,70.669418 53.343452,71.035164 
z"/>
<path fill="#241B19" opacity="1.000000" stroke="none" 
	d="
M67.863312,53.799690 
	C67.220955,53.581627 66.838150,53.175846 66.455345,52.770061 
	C67.165863,52.530865 67.876373,52.291668 68.920753,52.074394 
	C68.877373,52.601536 68.500122,53.106754 67.863312,53.799690 
z"/>
<path fill="#060101" opacity="1.000000" stroke="none" 
	d="
M14.960167,51.375404 
	C15.241866,51.848640 15.440153,52.687134 15.424983,53.728970 
	C15.099935,53.201763 14.988344,52.471207 14.960167,51.375404 
z"/>
<path fill="#251D1C" opacity="1.000000" stroke="none" 
	d="
M70.755768,39.122318 
	C70.835670,39.590416 70.663383,39.980976 70.491096,40.371532 
	C70.337517,40.128628 70.183937,39.885723 70.011681,39.410362 
	C70.163193,39.133530 70.333389,39.089157 70.755768,39.122318 
z"/>
<path fill="#F3F2F0" opacity="1.000000" stroke="none" 
	d="
M57.469494,79.450790 
	C57.522640,79.419342 57.416348,79.482231 57.469494,79.450790 
z"/>
<path fill="#F3F2F0" opacity="1.000000" stroke="none" 
	d="
M51.556679,71.906418 
	C51.469715,71.708542 51.527401,71.445190 51.825546,71.254654 
	C51.990837,71.531570 51.869278,71.702728 51.556679,71.906418 
z"/>
<path fill="#EEECEA" opacity="1.000000" stroke="none" 
	d="
M49.724174,34.583504 
	C49.947346,34.709854 50.148746,34.899429 50.350143,35.089005 
	C50.161282,35.083004 49.972416,35.077000 49.678123,34.875153 
	C49.572689,34.679314 49.702400,34.646732 49.724174,34.583504 
z"/>
<path fill="#060101" opacity="1.000000" stroke="none" 
	d="
M15.690269,9.104906 
	C15.889756,9.440606 15.716037,9.673032 15.240342,9.912880 
	C15.158502,9.684278 15.284734,9.378055 15.690269,9.104906 
z"/>
<path fill="#E8E4E3" opacity="1.000000" stroke="none" 
	d="
M40.548306,27.414242 
	C38.295574,35.034134 32.825321,31.867538 27.616240,31.551044 
	C27.616240,27.761297 27.616240,23.850071 27.616240,19.985365 
	C36.875370,18.302532 41.552662,20.386341 40.548306,27.414242 
z"/>
<path fill="#241B19" opacity="1.000000" stroke="none" 
	d="
M57.369770,55.007416 
	C57.022041,53.977657 57.030365,52.950058 57.080570,51.543232 
	C59.277851,52.023731 61.433250,52.883453 63.727806,53.798683 
	C62.698772,59.119392 59.634541,54.380676 57.369770,55.007416 
z"/>
<path fill="#241D1B" opacity="1.000000" stroke="none" 
	d="
M65.074692,43.381645 
	C67.215416,43.464531 69.424507,43.901630 71.817078,44.668877 
	C69.714722,44.577969 67.428886,44.156914 65.074692,43.381645 
z"/>
<path fill="#2A201F" opacity="1.000000" stroke="none" 
	d="
M57.838394,61.257767 
	C58.145428,62.118080 58.116081,62.899479 58.086735,63.680882 
	C57.523602,63.531101 56.960464,63.381321 56.397331,63.231537 
	C56.765556,62.547314 57.133785,61.863087 57.838394,61.257767 
z"/>
<path fill="#241B19" opacity="1.000000" stroke="none" 
	d="
M61.613243,48.539207 
	C62.057957,48.654160 62.327785,48.936649 62.597618,49.219139 
	C62.480690,49.330811 62.363766,49.442482 62.246841,49.554153 
	C61.977345,49.271679 61.707851,48.989208 61.613243,48.539207 
z"/>
</svg>